<svg width="48" height="48" viewBox="0 0 48 48" fill="none" xmlns="http://www.w3.org/2000/svg">
<path d="M24.7996 39.2H21.5996V15.2H27.5996C31.7596 15.2 35.1996 18.64 35.1996 22.8C35.1996 26.96 31.7596 30.4 27.5996 30.4H24.7996V39.2ZM24.7996 27.2H27.5996C29.9996 27.2 31.9996 25.2 31.9996 22.8C31.9996 20.4 29.9996 18.4 27.5996 18.4H24.7996V27.2Z" fill="#a8a8a8"/>
<path d="M12.0001 9.2H17.5201C17.5201 9.04 18.0801 5.36 17.3601 1.36L17.1201 0L8.08007 0.08L7.60007 0.96C1.04008 14.16 6.08007 33.76 6.32007 34.64L6.72007 36.16L9.84007 35.36L9.44007 33.84C9.44007 33.76 9.04007 32.24 8.64007 29.76L9.36007 28.72C9.60007 28.4 14.3201 21.6 16.0801 14L12.0001 9.2Z" fill="#1d8cc7"/>
<path d="M44.7998 27.2V31.2V37.6H41.5998C40.7198 37.6 39.9998 36.88 39.9998 36V27.2H36.7998V36C36.7998 38.64 38.9598 40.8 41.5998 40.8H44.7998V43.2C44.7998 44.08 44.0798 44.7999 43.1998 44.7999H36.7998V48H43.1998C45.8398 48 47.9998 45.84 47.9998 43.2V40.8V31.2V27.2H44.7998Z" fill="#a8a8a8"/>
<path d="M16 48H0V39.2H16V48Z" fill="#1d8cc7"/>
<path d="M13.6004 42.4H2.40039V33.6H13.6004V42.4ZM5.60039 39.2H10.4004V36.8H5.60039V39.2Z" fill="#1d8cc7"/>
</svg>
