<svg width="43" height="48" viewBox="0 0 43 48" fill="none" xmlns="http://www.w3.org/2000/svg">
<path d="M21.3643 25.5C22.1927 25.5 22.8643 24.8284 22.8643 24C22.8643 23.1716 22.1927 22.5 21.3643 22.5C20.5358 22.5 19.8643 23.1716 19.8643 24C19.8643 24.8284 20.5358 25.5 21.3643 25.5Z" fill="#a8a8a8"/>
<path d="M10.9385 37.875C11.7669 37.875 12.4385 37.2034 12.4385 36.375C12.4385 35.5466 11.7669 34.875 10.9385 34.875C10.11 34.875 9.43848 35.5466 9.43848 36.375C9.43848 37.2034 10.11 37.875 10.9385 37.875Z" fill="#a8a8a8"/>
<path d="M34.9385 12.525C35.7669 12.525 36.4385 11.8535 36.4385 11.025C36.4385 10.1966 35.7669 9.52502 34.9385 9.52502C34.11 9.52502 33.4385 10.1966 33.4385 11.025C33.4385 11.8535 34.11 12.525 34.9385 12.525Z" fill="#a8a8a8"/>
<path d="M21.3643 48C16.8643 48 12.3643 39.75 12.3643 24C12.3643 8.25 16.8643 0 21.3643 0C25.8643 0 30.3643 8.25 30.3643 24C30.3643 39.75 25.7893 48 21.3643 48ZM21.3643 3C18.8893 3 15.3643 11.175 15.3643 24C15.3643 36.825 18.8893 45 21.3643 45C23.8393 45 27.3643 36.825 27.3643 24C27.3643 11.175 23.7643 3 21.3643 3Z" fill="#1d8cc7"/>
<path d="M14.8393 36.7498C14.2393 36.7498 13.6393 36.3748 13.4143 35.7748C13.1143 35.0248 13.5643 34.1248 14.3143 33.8998C17.5393 32.7748 20.9893 31.1998 24.2893 29.2498C35.4643 22.7998 40.7893 15.5998 39.5143 13.4998C39.3643 13.2748 39.0643 13.0498 38.6893 12.8998C37.9393 12.5998 37.5643 11.6998 37.8643 10.9498C38.1643 10.1998 39.0643 9.8248 39.8143 10.1248C40.8643 10.5748 41.6143 11.1748 42.1393 12.0748C45.0643 17.1748 36.2143 25.8748 25.8643 31.8748C22.3393 33.8998 18.7393 35.5498 15.3643 36.7498C15.2143 36.7498 14.9893 36.7498 14.8393 36.7498Z" fill="#1d8cc7"/>
<path d="M6.36407 38.475C2.76407 38.475 1.26407 37.125 0.589072 36C-1.66093 32.1 3.21407 24.075 16.8641 16.2C21.5141 13.5 26.3141 11.475 30.5141 10.35C31.3391 10.125 32.1641 10.65 32.3141 11.4C32.4641 12.15 32.0141 13.05 31.2641 13.2C27.3641 14.25 22.7891 16.2 18.3641 18.75C7.26407 25.2 1.93907 32.4 3.13907 34.5C3.51407 35.1 4.63907 35.475 6.28907 35.475H6.36407C7.18907 35.475 7.86407 36.15 7.86407 36.975C7.86407 37.8 7.18907 38.475 6.36407 38.475Z" fill="#1d8cc7"/>
<path d="M36.1389 38.4752C31.6389 38.4752 25.0389 36.5252 16.8639 31.8002C6.51389 25.8002 -2.41111 17.1002 0.588892 12.0002C2.83889 8.10021 12.2139 8.32521 25.8639 16.2002C39.5139 24.0752 44.3889 32.1002 42.1389 36.0002C41.2389 37.5752 39.1389 38.4752 36.1389 38.4752ZM6.28889 12.5252C4.63889 12.5252 3.58889 12.9002 3.21389 13.5002C2.01389 15.6002 7.26389 22.8002 18.3639 29.1752C29.4639 35.5502 38.3139 36.6002 39.5139 34.5002C40.7139 32.4002 35.4639 25.2002 24.3639 18.8252C16.6389 14.3252 9.96389 12.5252 6.28889 12.5252Z" fill="#1d8cc7"/>
</svg>
